<?xml version="1.0" encoding="UTF-8"?>
<svg id="Glyph" xmlns="http://www.w3.org/2000/svg" version="1.1" viewBox="0 0 24 24">
  <!-- Generator: Adobe Illustrator 30.3.0, SVG Export Plug-In . SVG Version: 2.1.3 Build 182)  -->
  <defs>
    <style>
      .st0 {
        fill: #231f20;
      }
    </style>
  </defs>
  <path class="st0" d="M16.38,14.37c-.25-.09-.52.04-.61.29,0,0,0,0,0,0-.88,2.44-3.19,4.07-5.79,4.07-8.16-.34-8.16-11.96,0-12.3,2.6,0,4.91,1.63,5.79,4.07.09.25.36.38.61.29.25-.09.38-.36.29-.61,0,0,0,0,0,0-1.01-2.82-3.69-4.71-6.69-4.71-9.43.39-9.43,13.83,0,14.22,3,0,5.68-1.89,6.69-4.71.09-.25-.04-.52-.29-.61Z"/>
  <path class="st0" d="M21.06,12.76c.07-.17.03-.36-.09-.5l-2.24-2.44c-.18-.19-.49-.2-.68-.02-.19.18-.2.47-.03.67l1.5,1.64h-7.24c-.26,0-.48.21-.48.48s.21.48.48.48h7.24l-1.5,1.64c-.18.2-.17.5.03.68s.5.17.68-.03l2.24-2.44s.07-.09.09-.15Z"/>
</svg>