<?xml version="1.0" encoding="UTF-8"?>
<svg id="Layer_1" xmlns="http://www.w3.org/2000/svg" version="1.1" xmlns:xlink="http://www.w3.org/1999/xlink" viewBox="0 0 24 24">
  <!-- Generator: Adobe Illustrator 30.3.0, SVG Export Plug-In . SVG Version: 2.1.3 Build 182)  -->
  <defs>
    <style>
      .st0 {
        fill: #fff;
      }

      .st1 {
        fill: none;
      }

      .st2 {
        fill-opacity: .45;
        fill-rule: evenodd;
      }

      .st3 {
        clip-path: url(#clippath);
      }
    </style>
    <clipPath id="clippath">
      <rect class="st1" x="3" y="3" width="18" height="18"/>
    </clipPath>
  </defs>
  <g class="st3">
    <g>
      <path class="st2" d="M21,5.25c0-1.24-1.01-2.25-2.25-2.25H5.25c-1.24,0-2.25,1.01-2.25,2.25v13.5c0,1.24,1.01,2.25,2.25,2.25h13.5c1.24,0,2.25-1.01,2.25-2.25V5.25Z"/>
      <path class="st0" d="M8.16,9.28h-3.01v9.07h3.01v-9.07Z"/>
      <path class="st0" d="M6.67,4.91c-1.03,0-1.71.68-1.71,1.57s.65,1.57,1.67,1.57h.02c1.05,0,1.71-.7,1.71-1.57-.02-.89-.65-1.57-1.69-1.57Z"/>
      <path class="st0" d="M15.56,9.07c-1.6,0-2.32.88-2.72,1.5v-1.28h-3.01c.04.85,0,9.07,0,9.07h3.01v-5.06c0-.27.02-.54.1-.74.22-.54.71-1.1,1.55-1.1,1.09,0,1.53.83,1.53,2.05v4.85h3.01v-5.2c0-2.79-1.49-4.08-3.47-4.08Z"/>
    </g>
  </g>
</svg>