<?xml version="1.0" encoding="UTF-8"?>
<svg id="Layer_1" xmlns="http://www.w3.org/2000/svg" version="1.1" viewBox="0 0 24 24">
  <!-- Generator: Adobe Illustrator 30.3.0, SVG Export Plug-In . SVG Version: 2.1.3 Build 182)  -->
  <defs>
    <style>
      .st0 {
        fill: #e7a7a7;
      }

      .st1 {
        fill: #d54242;
      }

      .st2 {
        display: none;
      }

      .st3 {
        fill: #e82d2c;
      }
    </style>
  </defs>
  <g id="_x23_d54242ff" class="st2">
    <path class="st1" d="M203.66-208.09c5.89-.94,11.86-1.22,17.82-1.43.03,6.84.11,13.68.34,20.52.33,5.11.71,10.26.11,15.37-1.69-3.55-1.66-7.54-1.89-11.37-.44-7.19-.91-14.39-1.63-21.56-4.97.17-10.03.23-14.75-1.53Z"/>
    <path class="st1" d="M-218.75-199.15c12.09-.25,24.18.11,36.27.37l-.1.87c-10.46,2.6-21.35.19-31.92,1.58-2.09.23-1.99,2.75-2.17,4.31-.31,10.02.42,20.06-.13,30.08-10.52,3.97-22.04,2.59-32.77,5.67-.09,11.44,5.92,22.19,4.52,33.68l-.92.32c-1.36-12.02-4.48-23.76-6.46-35.69,11.58-1.79,23.21-3.24,34.81-4.92-.32-12.09-.92-24.17-1.13-36.27Z"/>
    <path class="st1" d="M-80.21-115.32c2.24-1.09,4.6-1.93,6.99-2.65.69,5.63.38,11.31.49,16.97.02,11.66.21,23.32-.2,34.98-2.87-1-5.66-2.23-8.18-3.93,2.16.19,4.33.28,6.49.4.37-5.48.39-10.97.29-16.46-.16-9.42.26-18.84-.22-28.25-1.89-.37-3.77-.75-5.66-1.06Z"/>
    <path class="st1" d="M-56.99-117.44c5.75,1.57,11.28,4.79,14.34,10.07,4.26,7.32,6.13,15.77,7.43,24.07-3.2-2.13-3.35-6.18-4.13-9.56-1.2-5.93-2.67-12.28-7.01-16.76-1.92-2.12-4.75-2.86-7.42-3.51-3.01,9.43-1.55,19.44-1.85,29.15-.3,7.76.83,15.64-.85,23.29-.68-8.42,0-16.88-.64-25.31-.16-10.47-.27-20.96.13-31.44Z"/>
    <path class="st1" d="M-131.44-78.44c-1.52-6.2-1.53-12.88-.05-19.08.94,6.31.91,12.76.05,19.08Z"/>
    <path class="st1" d="M-79.94-29.3c2.34.78,4.68,1.57,7.02,2.37.24,19.71.27,39.43,0,59.15-2.48-.55-4.95-1.1-7.32-1.96,1.89-.35,3.8-.69,5.71-1.03.38-16.74.1-33.49.16-50.24.47-3.88-3.21-5.93-5.57-8.29Z"/>
    <path class="st1" d="M5.45-7.52c1.53,5.85,1.46,12.17.05,18.04-.92-5.97-.94-12.07-.05-18.04Z"/>
    <path class="st1" d="M94.42,117.44c7.19-2.34,14.75-.39,22.12-.98,8.74-.51,18.17,2.14,23.68,9.33,4.15,4.62,3.78,11.35,2.57,17.02-1.2,5.41-5.53,9.18-8.92,13.27,1.92,6.16,6.14,11.09,9.75,16.3,1.84,2.43,2.39,5.46,2.45,8.45-5.9,1.36-12.3,2.14-18.14.22-4.05-3.12-3.1-9.75-7.3-12.82-2.92-1.35-6.17-.49-9.17.03-.33,3.9-.57,7.88-1.97,11.58l-.31-1.04c-1.03-7.12-.21-14.34.12-21.49,2.75.04,5.51.06,8.28.07,4.22,7.46,8.21,15.04,12.55,22.43,4.86.02,9.73-.01,14.59-.05-4.84-8.35-9.94-16.54-14.68-24.95,3.26-2.22,6.8-4.39,8.83-7.89,4.08-7.08,3.31-17.2-3.08-22.7-4.51-4.18-10.85-5.29-16.77-5.48-7.62-.18-15.24-.1-22.86.15.06,20.29-.02,40.58,0,60.86,4.39,0,8.79-.04,13.18.13-4.21,2.78-9.55,1.22-14.24,1.07-1.03-7.37-.7-14.84-1.69-22.21-.67-4.99-.38-10.03.33-14.99,1.26-8.74-.21-17.56.68-26.31Z"/>
    <path class="st1" d="M-114.93,122.03c8.06-5.92,18.76-6.51,28.25-4.52,3.99,1.22,8.74,2.58,10.54,6.77-8.21-6.13-19.06-7.44-28.88-5.25-7.82,2.03-14.64,7.75-17.67,15.28-4.22,10.23-4.12,22.46,1.07,32.33,3.53,7.11,10.6,12.16,18.38,13.55,8.43,1.42,17.76.66,24.78-4.65,7.06-4.85,10.63-13.28,11.69-21.54,1.51-10.3-1.62-20.97-8.31-28.92l-.55-.78c3.38.77,5.32,3.8,6.65,6.75,3.57,8.13,5.93,17.39,3.33,26.17-2.01,6.62-3.8,14.17-9.81,18.38-6.09,4.78-13.86,7.18-21.58,6.81-6.52-.31-13.44-1.46-18.67-5.65-4.51-3.48-7.1-8.72-9.39-13.8-3.19-6.72-2.82-14.48-1.67-21.63,2.06-7.29,5.07-15.16,11.84-19.3Z"/>
    <path class="st1" d="M-56,118c6.65-.71,13.33-.28,20-.36,7.02.07,14.06-.32,21.08.3.31,3.98.95,8.14-.53,11.99-.25-3.57-.27-7.14-.33-10.71-13,.15-26.02-1.03-39.01.04-.06,20.18.07,40.36,0,60.54,4.18.05,8.36.05,12.54.03,0-8.04-.05-16.07.14-24.1,7.1-.1,14.21-.15,21.32.03-5.61,3.56-13.19-.09-18.93,3.53-1.06.86-.76,2.45-.97,3.66-.39,5.93.84,11.98-.54,17.82-4.85,1.28-9.92.61-14.84.23-.71-16.98-.06-34-.31-51-.11-4.01,0-8.02.38-12Z"/>
    <path class="st1" d="M-6.05,117.94c7-.61,14.03-.2,21.05-.28,6.7.06,13.41-.35,20.09.28.43,4.13.65,8.35-.54,12.39l-.08-.83c-.31-3.42-.27-6.86-.27-10.29-12.98,0-25.96-.05-38.93.02-.13,20.19.19,40.38-.04,60.57,4.29.04,8.59.04,12.89-.02.1-7.98-.77-15.98-.08-23.95l1.09-.1c.4,6.09.17,12.19.3,18.29-.07,2.23.16,4.57-.69,6.7-4.79,1.45-9.89.6-14.79.28-.72-7.98-.12-16-.29-24,.2-13.02-.46-26.06.29-39.06Z"/>
    <path class="st1" d="M43.81,117.74c8.73-.29,17.46,0,26.19-.1,4.85,0,9.79-.43,14.55.85l-.94.18c-12.88,1.61-25.9-.44-38.82.36-.17,20.25.07,40.51-.09,60.77,13.38.04,26.77.03,40.16.02-.04-3.17-.14-6.34.19-9.48l.53-1.01c1.18,3.81.92,7.82.5,11.73-12.36.69-24.75.06-37.13.35-2.06-.23-5.7.37-5.89-2.58-.49-5.59.38-11.22-.16-16.82-.82-9.67.54-19.34.02-29-.15-5.1-1.09-10.4.89-15.27Z"/>
    <path class="st1" d="M108.89,129.25c4.65.17,9.5-.63,14,.85,6.64,2.48,6.4,13.08.37,16.17-4.3,2.21-9.38.97-14.02,1.26-.72-6.07-.55-12.19-.35-18.28M111.35,131.37c-.75,4.49-.68,9.06-.19,13.58,4.16,1.26,9.66,1.72,12.58-2.2,2.86-3.21,2.12-8.63-1.5-10.92-3.43-1.55-7.3-.72-10.89-.46Z"/>
    <path class="st1" d="M-42.13,129.62c8.54.01,17.08-.26,25.61.24-2.41,1.95-5.62,1.5-8.49,1.56-5.23-.14-10.52-.48-15.67.68-.12,3.79-.06,7.58.22,11.37,5.5.43,11.01.02,16.52.17,1.5-.07,2.93.48,3.97,1.59-7.39.25-14.78.2-22.16-.02-.17-5.2-.17-10.4,0-15.59Z"/>
    <path class="st1" d="M57.82,154.08c7.13-.38,14.44-.9,21.47.59-5.99.99-12.06-.07-18.05.66-1.2.04-1.82.66-1.85,1.87-.5,3.39-.04,6.82.2,10.22,8.47.73,16.97-.35,25.43.57l.11,1.38c-9.14-.17-18.27.07-27.39-.11-.13-5.06-.17-10.12.08-15.18Z"/>
    <path class="st1" d="M247.1,223.29c.98-9.01-3.63-17.89-1.37-26.86,1.79,4.94,1.54,10.26,2.24,15.4.49,4.86,1.11,9.71,1.69,14.56-11.88.04-23.7,1.61-35.56,1.77,2.09-1.11,4.43-1.6,6.78-1.78,7.05-.59,14.07-1.52,21.16-1.71,1.67-.29,3.85.11,5.06-1.38Z"/>
    <path class="st1" d="M-223.96,201.75c1.88.08,4.7-.1,4.71,2.54.54,10.39-2.28,20.71-1.29,31.12,11.46,2.1,23.2.5,34.65,2.48.01,2.08.01,4.17.04,6.26-.49-1.7-.93-3.41-1.39-5.1-11.85-.66-23.74-.49-35.59-1.44.37-10.91,1.71-21.78,1.61-32.7.4-1.83-1.63-2.28-2.74-3.16Z"/>
    <path class="st1" d="M209.84,261.4c2.35-10.75,1.27-21.98,4.05-32.62,1.04,5.06-.13,10.18-.34,15.26-.22,6.57-1.37,13.08-1.16,19.68-3.66-.14-7.34-.34-10.89-1.27,2.78-.3,5.56-.71,8.34-1.05Z"/>
  </g>
  <g>
    <g id="_x23_e82d2cff">
      <path class="st3" d="M11.75,3.76c.26-.22.49-.47.75-.69.22.25.44.51.65.77.29-.18.57-.37.85-.55.18.28.34.58.51.86.32-.1.63-.26.94-.37.12.31.24.62.36.93.33-.07.66-.15.99-.21.06.33.12.65.19.98.17.04.35-.03.53,0,.13.05.28.05.42.04.02.2.03.41.05.61,0,.11,0,.22.05.32.34.03.68.09,1.02.12-.02.34-.11.67-.13,1.01.33.08.65.19.97.29-.1.32-.22.62-.32.94.3.16.61.29.91.45-.15.29-.32.58-.47.88.27.2.56.39.83.59-.21.27-.43.52-.62.8.23.24.48.46.71.71-.24.23-.5.44-.74.67.18.27.36.53.54.79.05.06-.03.09-.07.12-.25.15-.5.31-.75.46.14.3.28.6.42.9-.3.13-.61.23-.91.38.09.33.17.65.25.98-.32.07-.63.14-.94.21,0,.05-.01.11-.02.16-.06.25.07.5.04.76-.03.04-.1.03-.14.04-.2,0-.4.03-.6.05-.07,0-.13.02-.19.05v.02c-.08.3-.05.62-.12.92-.08,0-.16.02-.24.03-.23,0-.47-.05-.7-.06-.06.33-.15.65-.21.98-.33-.08-.65-.17-.97-.27-.13.31-.26.62-.39.92-.31-.13-.61-.28-.91-.42-.19.28-.35.58-.55.85-.28-.19-.55-.39-.83-.58-.22.25-.44.5-.67.73-.24-.23-.46-.47-.71-.69-.27.2-.53.41-.8.61-.2-.27-.38-.55-.58-.82-.3.15-.59.32-.88.46-.15-.29-.28-.59-.43-.88-.1,0-.2.05-.3.08-.22.06-.43.16-.65.21-.1-.31-.18-.63-.28-.94-.33.02-.66.1-1,.13,0-.28-.07-.56-.07-.84,0-.06,0-.12,0-.18-.32-.06-.66-.01-.98-.07-.03-.29.05-.59.04-.88,0-.07-.08-.07-.13-.07-.13,0-.26-.04-.39-.06-.17-.03-.34-.07-.51-.11.04-.33.14-.65.19-.98-.31-.12-.63-.23-.94-.35.13-.31.25-.62.36-.94-.29-.16-.57-.32-.86-.49.15-.3.36-.56.51-.86-.25-.21-.5-.41-.75-.62,0,0,.02-.03.02-.04.18-.26.43-.47.62-.72-.21-.26-.43-.51-.63-.77.26-.21.53-.4.79-.61-.16-.29-.33-.58-.5-.87.29-.16.58-.31.87-.47-.09-.32-.23-.63-.34-.94.31-.1.62-.2.93-.3h.03c.04-.33-.13-.64-.13-.96.3-.09.63-.05.93-.16.02-.28,0-.57,0-.85,0-.04,0-.12.06-.12.3-.04.61.03.9-.04v-.02c.03-.33.09-.66.12-.99.34.03.67.12,1.01.16.1-.32.2-.64.3-.96.3.1.59.22.89.33.04.02.09.01.1-.03.14-.28.29-.56.43-.84.28.15.56.32.83.48.05.04.09-.03.12-.06.18-.24.36-.48.54-.72.28.2.52.45.79.66M11.42,4.65c-.62.05-1.24.17-1.83.38-1,.34-1.91.91-2.67,1.63-.58.56-1.07,1.21-1.45,1.91-.46.86-.74,1.83-.83,2.8,0,.31-.04.62-.02.92.06,1.63.71,3.22,1.77,4.46.62.74,1.4,1.34,2.26,1.78,1.14.6,2.45.88,3.74.81.77-.04,1.54-.21,2.26-.49.44-.18.87-.39,1.27-.65.27-.18.53-.37.78-.58.63-.53,1.16-1.16,1.59-1.86.66-1.07,1.02-2.32,1.04-3.58.04-1.61-.47-3.23-1.43-4.52-.28-.37-.58-.73-.93-1.05-.33-.32-.71-.6-1.09-.86-.31-.2-.64-.36-.98-.52-1.09-.48-2.3-.68-3.49-.6Z"/>
      <path class="st3" d="M11.51,5.05c1.26-.07,2.54.18,3.65.78.91.46,1.7,1.14,2.32,1.94,1.15,1.47,1.66,3.42,1.38,5.27-.13.9-.45,1.78-.93,2.56-.18.32-.41.6-.64.89-.57.68-1.28,1.25-2.06,1.67-.45.25-.93.44-1.43.57-.5.15-1.03.22-1.55.23-.25,0-.51,0-.76,0-2.15-.15-4.2-1.37-5.36-3.19-.61-.94-.99-2.04-1.09-3.16-.03-.57-.03-1.14.06-1.7.18-1.13.65-2.21,1.35-3.12.23-.29.47-.57.73-.82.37-.34.76-.67,1.2-.92.42-.27.88-.46,1.34-.64.57-.2,1.17-.31,1.77-.36M9.71,6.71c0,.15,0,.3,0,.45-.2.03-.4.07-.59.15-.41.16-.77.49-.93.9-.12.28-.12.58-.1.88.04.31.17.61.38.84.28.29.66.46,1.04.59.07.07.17.12.16.23,0,.47,0,.95,0,1.42-.05,0-.11.02-.16.03-.12-.05-.22-.13-.31-.23-.2-.22-.26-.53-.33-.81-.33.04-.66.07-.99.12.02.21.04.43.11.64.1.29.26.55.49.75.34.29.78.44,1.22.48,0,.21,0,.41,0,.62.16,0,.32,0,.48,0,0-.2,0-.41,0-.61.49-.04.99-.24,1.32-.61.29-.31.43-.74.41-1.16,0-.2-.02-.4-.08-.59-.11-.34-.35-.63-.67-.8-.31-.17-.64-.26-.98-.35.05-.22.02-.44.02-.66,0-.27-.03-.56.05-.82.08.02.16.04.21.1.12.13.16.31.2.47.02.1.03.21.12.27.34-.05.68-.1,1.01-.15-.01-.15-.04-.29-.08-.43-.13-.48-.49-.89-.95-1.08-.18-.09-.39-.12-.58-.17,0-.15,0-.3,0-.46-.16,0-.32,0-.48,0M8.07,9.14c.02-.18.03-.36,0-.54-.04.18-.04.36,0,.54M13.46,9.93c-.16.03-.29.13-.38.26-.09.14-.13.31-.13.48,0,.18,0,.36.06.52.06.18.21.34.4.39.24.07.53.04.7-.14.15-.17.22-.41.21-.64,0-.26-.03-.56-.23-.75-.17-.16-.41-.17-.62-.14M15.34,9.92c-.52.86-1.04,1.73-1.56,2.59-.13.22-.28.43-.4.66.13,0,.25,0,.38,0,.4-.65.79-1.31,1.19-1.96.25-.44.53-.86.79-1.31-.13,0-.26,0-.39.01M11.93,11.14c-.03.17-.02.34,0,.51.04-.17.04-.34,0-.51M15.32,11.45c-.23.04-.41.23-.48.45-.07.26-.07.54,0,.8.07.26.33.47.61.46.22.02.46-.07.58-.26.14-.19.16-.44.15-.67,0-.25-.08-.53-.3-.68-.16-.12-.37-.11-.56-.09M14.45,14.67c-.03.25.02.5-.02.74-.02.14-.03.28,0,.42.03.21.02.42.05.63.13,0,.28.05.4-.03v-.03s0,.03,0,.03c.04-.1.05-.22.06-.33.08-.01.18-.04.26,0,.12.09.09.27.21.36.16.05.35.03.51,0,0-.08-.02-.17-.07-.24-.1-.15-.22-.29-.28-.46.1-.12.22-.22.25-.37.03-.16.04-.35-.07-.48-.16-.2-.42-.28-.67-.26-.21.02-.42-.04-.62.03M8.53,14.8c-.19.12-.28.34-.33.55-.03.2-.04.42.05.61.06.14.14.29.27.39.15.12.34.15.53.16.22.01.44-.06.61-.19.17-.12.22-.33.28-.52.07-.25,0-.51-.09-.74-.04-.08-.09-.17-.19-.19l.02.02s-.02-.02-.03-.02c-.05-.12-.19-.16-.3-.19-.27-.06-.57-.04-.8.13M10.2,14.69c-.01.11-.01.23-.01.34,0,.48-.01.96,0,1.44.14.01.28.03.42,0,.04-.16,0-.34.02-.5,0-.03,0-.08.03-.1.16-.1.38,0,.53-.1.01,0,.03,0,.04,0,0-.1,0-.2,0-.3h-.02s-.07-.05-.11-.04c-.16,0-.31,0-.47,0,0-.11,0-.21,0-.32.15-.03.29-.02.44-.02.08,0,.17.01.24-.04h.03c.04-.11.02-.22.01-.34-.2-.02-.4,0-.6,0-.19,0-.38,0-.56.01M11.61,14.69c-.02.37,0,.74,0,1.1,0,.23-.01.45,0,.68.14,0,.28.03.42,0,.02-.06.02-.13.02-.19,0-.17,0-.34,0-.52.2,0,.41,0,.61,0,0-.1,0-.2,0-.29-.21,0-.42,0-.63-.01,0-.14,0-.29,0-.43.25,0,.49,0,.74,0v.02c.04-.11.03-.23.02-.35-.19-.02-.38,0-.57,0-.2,0-.4,0-.59,0M13.02,14.68c-.06.14-.03.29-.03.43.01.27-.02.55,0,.82.02.16,0,.32,0,.48,0,.08.11.07.17.07.35,0,.7,0,1.05,0,.01-.11.02-.22-.01-.33v.03s-.01-.03-.01-.03v-.04c-.24-.03-.48,0-.72-.02,0-.1-.02-.19,0-.29,0-.03.02-.05.05-.05.17-.02.34,0,.51-.02-.2-.04-.41-.03-.61-.02v-.02c.21,0,.43,0,.64,0,0-.1,0-.2,0-.3-.21,0-.43,0-.64,0,0-.12,0-.25,0-.37.24,0,.49,0,.73,0,0-.1,0-.21,0-.31h.03c-.13-.04-.27-.03-.41-.03-.25,0-.49,0-.74,0Z"/>
      <path class="st3" d="M9.13,8.92c-.07-.32.08-.69.38-.82.05,0,.11.02.16.03.01.27,0,.53,0,.8,0,.16,0,.31,0,.46-.06,0-.12,0-.18-.01-.18-.08-.32-.26-.36-.46Z"/>
      <path class="st3" d="M13.54,10.26c.1-.05.24,0,.29.11.06.14.06.29.06.44,0,.13,0,.28-.08.39-.08.12-.3.11-.37-.02-.09-.17-.07-.38-.07-.57.01-.13.04-.29.17-.36Z"/>
      <path class="st3" d="M10.18,10.76c.25.07.52.17.65.41.15.25.08.58-.09.8-.13.17-.35.26-.56.29,0-.5,0-1,0-1.5Z"/>
      <path class="st3" d="M15.4,11.79c.1-.05.23,0,.28.1.08.15.07.32.07.48,0,.13-.01.27-.09.38-.08.11-.26.11-.34,0-.09-.12-.09-.27-.09-.41,0-.14,0-.29.05-.43.02-.06.06-.11.12-.13Z"/>
      <path class="st3" d="M8.88,15.04c.12-.04.26-.04.37,0,.15.05.22.21.25.36.02.2.02.42-.1.59-.15.21-.48.22-.65.03-.12-.13-.14-.32-.14-.48,0-.19.08-.42.27-.5Z"/>
      <path class="st3" d="M14.92,15.07c.1,0,.21-.03.31.01.1.06.12.22.04.31-.08.11-.24.1-.36.06-.01-.13-.02-.26,0-.38Z"/>
    </g>
    <g id="_x23_e7a7a7ff">
      <path class="st0" d="M20.91,12.02s-.02-.05.02-.04c0,0-.02.03-.02.04Z"/>
    </g>
  </g>
</svg>