<?xml version="1.0" encoding="UTF-8"?>
<svg id="search" xmlns="http://www.w3.org/2000/svg" version="1.1" viewBox="0 0 24 24">
  <!-- Generator: Adobe Illustrator 30.3.0, SVG Export Plug-In . SVG Version: 2.1.3 Build 182)  -->
  <path d="M15.36,14.5c1.01-1.22,1.64-2.78,1.64-4.49,0-3.86-3.14-7.01-7-7.01s-7,3.14-7,7,3.14,7,7,7c1.69,0,3.28-.61,4.49-1.64l5.44,5.44c.14.14.29.19.45.19s.32-.05.45-.19c.24-.24.24-.66,0-.9l-5.47-5.42h0v.02ZM9.97,15.74c-3.17,0-5.73-2.56-5.73-5.73s2.57-5.73,5.73-5.73,5.73,2.56,5.73,5.73-2.56,5.73-5.73,5.73Z"/>
</svg>