<?xml version="1.0" encoding="UTF-8"?>
<svg id="cart" xmlns="http://www.w3.org/2000/svg" version="1.1" viewBox="0 0 24 24">
  <!-- Generator: Adobe Illustrator 30.3.0, SVG Export Plug-In . SVG Version: 2.1.3 Build 182)  -->
  <defs>
    <style>
      .st0 {
        fill: #010101;
      }
    </style>
  </defs>
  <path class="st0" d="M8.26,17.26c-.99,0-1.8.81-1.8,1.8s.81,1.8,1.8,1.8,1.8-.81,1.8-1.8c0-.99-.81-1.8-1.8-1.8ZM3,3.14v1.8h1.8l3.24,6.56-1.35,2.2c-.13.23-.22.54-.22.86,0,1.21.82,1.8,1.94,1.8h10.52v-1.73h-10.3c-.13,0-.22-.09-.22-.23,0-.04.1-.23.1-.23l.9-1.42h6.7c.68,0,1.26-.36,1.57-.94l3.24-5.57c.05-.11.09-.27.09-.45,0-.5-.41-.86-.9-.86H6.78l-.86-1.8h-2.93ZM17.12,17.26c-.99,0-1.8.81-1.8,1.8s.81,1.8,1.8,1.8,1.8-.81,1.8-1.8-.81-1.8-1.8-1.8Z"/>
</svg>