<?xml version="1.0" encoding="UTF-8"?>
<svg id="menu" xmlns="http://www.w3.org/2000/svg" version="1.1" viewBox="0 0 24 24">
  <!-- Generator: Adobe Illustrator 30.3.0, SVG Export Plug-In . SVG Version: 2.1.3 Build 182)  -->
  <path d="M19.56,6.69H4.44c-.85,0-1.53-.68-1.53-1.53s.68-1.53,1.53-1.53h15.11c.85,0,1.53.68,1.53,1.53s-.68,1.53-1.53,1.53ZM21.09,12c0-.85-.68-1.53-1.53-1.53H4.44c-.85,0-1.53.68-1.53,1.53s.68,1.53,1.53,1.53h15.11c.85,0,1.53-.68,1.53-1.53ZM21.09,18.85c0-.85-.68-1.53-1.53-1.53H4.44c-.85,0-1.53.68-1.53,1.53s.68,1.53,1.53,1.53h15.11c.85,0,1.53-.68,1.53-1.53Z"/>
</svg>