<?xml version="1.0" encoding="UTF-8"?>
<svg id="Layer_1" xmlns="http://www.w3.org/2000/svg" version="1.1" xmlns:xlink="http://www.w3.org/1999/xlink" viewBox="0 0 24 24">
  <!-- Generator: Adobe Illustrator 30.3.0, SVG Export Plug-In . SVG Version: 2.1.3 Build 182)  -->
  <defs>
    <style>
      .st0 {
        fill: none;
      }

      .st1 {
        fill-opacity: .45;
      }

      .st2 {
        clip-path: url(#clippath);
      }
    </style>
    <clipPath id="clippath">
      <rect class="st0" x="3.06" y="3.06" width="17.89" height="17.89"/>
    </clipPath>
  </defs>
  <g class="st2">
    <path class="st1" d="M12,4.67c2.39,0,2.67,0,3.62.05,2.42.11,3.56,1.26,3.67,3.67.04.94.05,1.23.05,3.61s0,2.67-.05,3.61c-.11,2.4-1.24,3.56-3.67,3.67-.94.04-1.23.05-3.62.05s-2.67,0-3.61-.05c-2.43-.11-3.56-1.27-3.67-3.67-.04-.94-.05-1.23-.05-3.61s0-2.67.05-3.61c.11-2.41,1.24-3.56,3.67-3.67.94-.04,1.23-.05,3.61-.05ZM12,3.06c-2.43,0-2.73.01-3.69.05-3.25.15-5.05,1.95-5.2,5.2-.04.95-.05,1.26-.05,3.69s.01,2.73.05,3.69c.15,3.25,1.95,5.05,5.2,5.2.95.04,1.26.05,3.69.05s2.73-.01,3.69-.05c3.25-.15,5.06-1.95,5.2-5.2.04-.95.05-1.26.05-3.69s-.01-2.73-.05-3.69c-.15-3.25-1.95-5.05-5.2-5.2-.95-.04-1.26-.05-3.69-.05ZM12,7.41c-2.54,0-4.59,2.06-4.59,4.59s2.06,4.59,4.59,4.59,4.59-2.06,4.59-4.59-2.06-4.59-4.59-4.59ZM12,14.98c-1.65,0-2.98-1.33-2.98-2.98s1.34-2.98,2.98-2.98,2.98,1.34,2.98,2.98-1.34,2.98-2.98,2.98ZM16.78,6.15c-.59,0-1.07.48-1.07,1.07s.48,1.07,1.07,1.07,1.07-.48,1.07-1.07-.48-1.07-1.07-1.07Z"/>
  </g>
</svg>